<?xml version="1.0" encoding="UTF-8" standalone="no"?>
<!DOCTYPE svg PUBLIC "-//W3C//DTD SVG 1.1//EN" "http://www.w3.org/Graphics/SVG/1.1/DTD/svg11.dtd">
<svg width="100%" height="100%" viewBox="0 0 512 512" version="1.1" xmlns="http://www.w3.org/2000/svg" xmlns:xlink="http://www.w3.org/1999/xlink" xml:space="preserve" xmlns:serif="http://www.serif.com/" style="fill-rule:evenodd;clip-rule:evenodd;stroke-linejoin:round;stroke-miterlimit:2;">
    <g transform="matrix(9.57009,0,0,9.22523,-1894.88,-1826.59)">
        <path d="M251.5,200.168C251.5,199.593 251.28,199.042 250.888,198.635C250.496,198.228 249.964,198 249.41,198L200.09,198C199.536,198 199.004,198.228 198.612,198.635C198.22,199.042 198,199.593 198,200.168L198,251.332C198,251.907 198.22,252.458 198.612,252.865C199.004,253.272 199.536,253.5 200.09,253.5L249.41,253.5C249.964,253.5 250.496,253.272 250.888,252.865C251.28,252.458 251.5,251.907 251.5,251.332L251.5,200.168Z" style="fill:rgb(51,124,244);"/>
    </g>
    <g transform="matrix(9.30909,0,0,9.48148,-1843.2,-1877.33)">
        <path d="M221.5,199.994L226.169,199.994C232.799,199.994 239.157,202.628 243.845,207.316C248.533,212.004 251.167,218.362 251.167,224.992C251.167,224.993 251.167,224.993 251.167,224.994C251.167,238.801 239.974,249.994 226.167,249.994L221.5,249.994C227.606,248.755 232.904,244.79 236.511,239.982C237.125,239.503 237.712,238.985 238.268,238.429C241.832,234.866 243.833,230.033 243.833,224.994L243.833,224.992C243.833,218.899 240.965,213.476 236.506,210C235.799,209.056 235.022,208.159 234.178,207.316C230.686,203.824 226.267,200.967 221.5,199.994ZM212,207L213.335,207C215.432,207 217.449,207.322 219.333,207.915L219.333,242.079C217.416,242.684 215.392,243 213.333,243L212,243L212,207Z" style="fill:white;"/>
    </g>
    <g transform="matrix(9.30909,0,0,9.48148,-1843.2,-1877.33)">
        <path d="M207.333,250L200,250L200,200L207.333,200L207.333,250ZM210,200L214.669,200C221.299,200 227.657,202.634 232.345,207.322C237.033,212.01 239.667,218.368 239.667,224.998C239.667,224.999 239.667,224.999 239.667,225C239.667,238.807 228.474,250 214.667,250L210,250L210,244L213.333,244C218.372,244 223.205,241.998 226.768,238.435C230.332,234.872 232.333,230.039 232.333,225L232.333,224.998C232.333,214.506 223.828,206 213.335,206L210,206L210,200Z" style="fill:rgb(33,33,33);"/>
    </g>
</svg>
